HIERARCHY
ROOT Hips
{
    OFFSET   0.000000   0.000000   0.000000
    CHANNELS 6 Xposition Yposition Zposition Zrotation Xrotation Yrotation
    JOINT Chest
    {
        OFFSET   0.000000   8.007230   0.000000
        CHANNELS 3 Zrotation Xrotation Yrotation
        JOINT Chest2
        {
            OFFSET   0.000000  22.077100   0.000000
            CHANNELS 3 Zrotation Xrotation Yrotation
            JOINT Neck
            {
                OFFSET   0.000000  23.254800  -0.000021
                CHANNELS 3 Zrotation Xrotation Yrotation
                JOINT Head
                {
                    OFFSET   0.000000  14.370000   1.956610
                    CHANNELS 3 Zrotation Xrotation Yrotation
                    End Site
                    {
                        OFFSET   0.000000  19.566000   0.000000
                    }
                }
            }
            JOINT LeftCollar
            {
                OFFSET   3.911900  19.017000  -0.467063
                CHANNELS 3 Zrotation Xrotation Yrotation
                JOINT LeftShoulder
                {
                    OFFSET  10.383700   0.000000   0.000000
                    CHANNELS 3 Zrotation Xrotation Yrotation
                    JOINT LeftElbow
                    {
                        OFFSET  26.662100   0.001529   0.000325
                        CHANNELS 3 Zrotation Xrotation Yrotation
                        JOINT LeftWrist
                        {
                            OFFSET  28.869000  -0.000011  -0.000096
                            CHANNELS 3 Zrotation Xrotation Yrotation
                            JOINT LeftFinger0
                            {
                                OFFSET   2.044650  -2.323460   3.252850
                                CHANNELS 3 Zrotation Xrotation Yrotation
                                JOINT LeftFinger01
                                {
                                    OFFSET   3.088130   0.000000   0.000000
                                    CHANNELS 3 Zrotation Xrotation Yrotation
                                    JOINT LeftFinger02
                                    {
                                        OFFSET   2.639460   0.000000   0.000000
                                        CHANNELS 3 Zrotation Xrotation Yrotation
                                        End Site
                                        {
                                            OFFSET   2.582190   0.000000   0.000000
                                        }
                                    }
                                }
                            }
                            JOINT LeftFinger1
                            {
                                OFFSET   8.364480   0.000000   3.252850
                                CHANNELS 3 Zrotation Xrotation Yrotation
                                JOINT LeftFinger11
                                {
                                    OFFSET   4.646930   0.000000   0.000000
                                    CHANNELS 3 Zrotation Xrotation Yrotation
                                    JOINT LeftFinger12
                                    {
                                        OFFSET   2.323460   0.000000   0.000000
                                        CHANNELS 3 Zrotation Xrotation Yrotation
                                        End Site
                                        {
                                            OFFSET   2.273050   0.000000   0.000000
                                        }
                                    }
                                }
                            }
                            JOINT LeftFinger2
                            {
                                OFFSET   8.364480   0.000016   1.078090
                                CHANNELS 3 Zrotation Xrotation Yrotation
                                JOINT LeftFinger21
                                {
                                    OFFSET   5.111620   0.000000   0.000000
                                    CHANNELS 3 Zrotation Xrotation Yrotation
                                    JOINT LeftFinger22
                                    {
                                        OFFSET   2.788160   0.000017   0.000000
                                        CHANNELS 3 Zrotation Xrotation Yrotation
                                        End Site
                                        {
                                            OFFSET   2.727660   0.000000   0.000000
                                        }
                                    }
                                }
                            }
                            JOINT LeftFinger3
                            {
                                OFFSET   7.899780   0.000015  -1.078090
                                CHANNELS 3 Zrotation Xrotation Yrotation
                                JOINT LeftFinger31
                                {
                                    OFFSET   4.646920   0.000000   0.000000
                                    CHANNELS 3 Zrotation Xrotation Yrotation
                                    JOINT LeftFinger32
                                    {
                                        OFFSET   2.323470   0.000000   0.000000
                                        CHANNELS 3 Zrotation Xrotation Yrotation
                                        End Site
                                        {
                                            OFFSET   2.273050   0.000000   0.000000
                                        }
                                    }
                                }
                            }
                            JOINT LeftFinger4
                            {
                                OFFSET   7.435090   0.000000  -3.252850
                                CHANNELS 3 Zrotation Xrotation Yrotation
                                JOINT LeftFinger41
                                {
                                    OFFSET   3.717550   0.000000   0.000000
                                    CHANNELS 3 Zrotation Xrotation Yrotation
                                    JOINT LeftFinger42
                                    {
                                        OFFSET   1.858760   0.000000   0.000000
                                        CHANNELS 3 Zrotation Xrotation Yrotation
                                        End Site
                                        {
                                            OFFSET   1.818440   0.000000   0.000000
                                        }
                                    }
                                }
                            }
                        }
                    }
                }
            }
            JOINT RightCollar
            {
                OFFSET  -3.911900  19.017000  -0.467062
                CHANNELS 3 Zrotation Xrotation Yrotation
                JOINT RightShoulder
                {
                    OFFSET -10.383700   0.000015   0.000000
                    CHANNELS 3 Zrotation Xrotation Yrotation
                    JOINT RightElbow
                    {
                        OFFSET -26.662100   0.001341   0.000385
                        CHANNELS 3 Zrotation Xrotation Yrotation
                        JOINT RightWrist
                        {
                            OFFSET -28.869000   0.000025  -0.000080
                            CHANNELS 3 Zrotation Xrotation Yrotation
                            JOINT RightFinger0
                            {
                                OFFSET  -2.044650  -2.323490   3.252850
                                CHANNELS 3 Zrotation Xrotation Yrotation
                                JOINT RightFinger01
                                {
                                    OFFSET  -3.088130   0.000000   0.000000
                                    CHANNELS 3 Zrotation Xrotation Yrotation
                                    JOINT RightFinger02
                                    {
                                        OFFSET  -2.639460   0.000000   0.000000
                                        CHANNELS 3 Zrotation Xrotation Yrotation
                                        End Site
                                        {
                                            OFFSET  -2.582190   0.000000   0.000000
                                        }
                                    }
                                }
                            }
                            JOINT RightFinger1
                            {
                                OFFSET  -8.364480   0.000000   3.252850
                                CHANNELS 3 Zrotation Xrotation Yrotation
                                JOINT RightFinger11
                                {
                                    OFFSET  -4.646930   0.000000   0.000000
                                    CHANNELS 3 Zrotation Xrotation Yrotation
                                    JOINT RightFinger12
                                    {
                                        OFFSET  -2.323470   0.000000   0.000000
                                        CHANNELS 3 Zrotation Xrotation Yrotation
                                        End Site
                                        {
                                            OFFSET  -2.273050   0.000000   0.000000
                                        }
                                    }
                                }
                            }
                            JOINT RightFinger2
                            {
                                OFFSET  -8.364480   0.000000   1.078090
                                CHANNELS 3 Zrotation Xrotation Yrotation
                                JOINT RightFinger21
                                {
                                    OFFSET  -5.111610   0.000000   0.000000
                                    CHANNELS 3 Zrotation Xrotation Yrotation
                                    JOINT RightFinger22
                                    {
                                        OFFSET  -2.788160   0.000000   0.000000
                                        CHANNELS 3 Zrotation Xrotation Yrotation
                                        End Site
                                        {
                                            OFFSET  -2.727660   0.000000   0.000000
                                        }
                                    }
                                }
                            }
                            JOINT RightFinger3
                            {
                                OFFSET  -7.899780   0.000000  -1.078090
                                CHANNELS 3 Zrotation Xrotation Yrotation
                                JOINT RightFinger31
                                {
                                    OFFSET  -4.646920   0.000000   0.000000
                                    CHANNELS 3 Zrotation Xrotation Yrotation
                                    JOINT RightFinger32
                                    {
                                        OFFSET  -2.323470   0.000000   0.000000
                                        CHANNELS 3 Zrotation Xrotation Yrotation
                                        End Site
                                        {
                                            OFFSET  -2.273050   0.000000   0.000000
                                        }
                                    }
                                }
                            }
                            JOINT RightFinger4
                            {
                                OFFSET  -7.435090   0.000000  -3.252850
                                CHANNELS 3 Zrotation Xrotation Yrotation
                                JOINT RightFinger41
                                {
                                    OFFSET  -3.717550   0.000000   0.000000
                                    CHANNELS 3 Zrotation Xrotation Yrotation
                                    JOINT RightFinger42
                                    {
                                        OFFSET  -1.858770   0.000000   0.000000
                                        CHANNELS 3 Zrotation Xrotation Yrotation
                                        End Site
                                        {
                                            OFFSET  -1.818440   0.000000   0.000000
                                        }
                                    }
                                }
                            }
                        }
                    }
                }
            }
        }
    }
    JOINT LeftHip
    {
        OFFSET   9.783010   0.000000   0.000000
        CHANNELS 3 Zrotation Xrotation Yrotation
        JOINT LeftKnee
        {
            OFFSET   0.000070 -41.789100   0.000028
            CHANNELS 3 Zrotation Xrotation Yrotation
            JOINT LeftAnkle
            {
                OFFSET   0.000087 -41.133200  -0.000100
                CHANNELS 3 Zrotation Xrotation Yrotation
                JOINT LeftToe
                {
                    OFFSET   0.000000  -6.358960  14.674500
                    CHANNELS 3 Zrotation Xrotation Yrotation
                    End Site
                    {
                        OFFSET   0.000000   0.000000   3.913200
                    }
                }
            }
        }
    }
    JOINT RightHip
    {
        OFFSET  -9.783020   0.000000   0.000000
        CHANNELS 3 Zrotation Xrotation Yrotation
        JOINT RightKnee
        {
            OFFSET   0.000044 -41.789100  -0.000870
            CHANNELS 3 Zrotation Xrotation Yrotation
            JOINT RightAnkle
            {
                OFFSET  -0.000090 -41.133200  -0.000245
                CHANNELS 3 Zrotation Xrotation Yrotation
                JOINT RightToe
                {
                    OFFSET   0.000000  -6.358960  14.674500
                    CHANNELS 3 Zrotation Xrotation Yrotation
                    End Site
                    {
                        OFFSET   0.000000   0.000000   3.913200
                    }
                }
            }
        }
    }
}
MOTION
Frames: 6
Frame Time:   0.016667
  0.190488  89.487000  -0.304643  -1.116350  -1.593080   4.711790   0.750961   3.243640  -1.119980   1.569160   6.471640  -2.287990  -0.543463   0.287761   0.005274  -0.891673   0.583381   5.243890  -5.338160   2.834730   8.367520 -77.551000   6.061010  -0.169832  -0.857330   4.849100 -19.629700   9.342990  -2.036670  -1.984610  41.240000  36.371300 -52.659500 -33.309000  -0.002561   0.000327 -11.654500  -0.001876  -0.000000 -31.417300  -0.917742   1.502090 -25.714900  -0.000060  -0.001256 -18.000400  -0.001637  -0.000955 -28.517600  -3.875510   7.080580 -40.566400  -0.000163  -0.003755 -27.017200  -0.001124  -0.001320 -26.985700  -4.050760   7.897830 -28.115700   0.000347  -0.002216 -18.725100   0.000949  -0.001323 -25.138800  -4.160710   8.789110 -38.188200   0.000715  -0.001155 -25.433300  -0.000676  -0.000388   8.875950   5.227550   7.704190  68.981500  -4.199250   0.404198   4.591470  -4.561850  16.578800 -15.406000   1.426030   4.732760 -48.512900  43.170600  84.952200  25.054000  -0.006900  -0.004296   7.527030   0.001492  -0.004156  30.302000   2.274770   3.885870  24.855700  -0.001570  -0.005571  17.399000   0.003527  -0.000555  28.514500   0.355012   0.653711  36.311900   0.002669  -0.002253  24.183800   0.004475  -0.001541  28.686900   0.356901   0.652680  38.663300   0.003644   0.005196  25.749800  -0.000856   0.002014  32.307100   0.332924   0.526725  48.462900   0.006217  -0.002895  32.276300  -0.003737  -0.008940   4.567520   2.568890  -1.839870   0.109599   1.042940  13.091000  -3.040900  -2.172070   0.423867  -0.000000   0.000000   0.000000  -1.023880   4.311510  -6.354880   1.926350   0.212203 -12.193700  -0.236134  -2.312520   0.482027   0.000000   0.000000   0.000000
  0.172547  89.486900  -0.309764  -1.112740  -1.612040   4.735370   0.751588   3.254580  -1.123380   1.571120   6.493460  -2.294990  -0.543465   0.299335   0.005281  -0.891914   0.606900   5.221780  -5.338300   2.827670   8.365300 -77.566700   6.065150  -0.180173  -0.845595   4.879980 -19.637400   9.352010  -2.020240  -1.975470  41.280100  36.462800 -52.679800 -33.336200  -0.002570   0.000407 -11.668100  -0.001879   0.000020 -31.398600  -0.951422   1.558010 -25.700200  -0.000068  -0.001264 -17.990100  -0.001640  -0.000961 -28.516900  -3.875470   7.085530 -40.525700  -0.000107  -0.003754 -26.990100  -0.001116  -0.001322 -26.974800  -4.088390   7.974000 -28.090100   0.000341  -0.002235 -18.708000   0.000948  -0.001337 -25.112900  -4.192910   8.866180 -38.156900   0.000712  -0.001163 -25.412500  -0.000677  -0.000392   8.913960   5.188440   7.759950  68.981700  -4.211860   0.333309   4.623770  -4.635390  16.585300 -15.496100   1.429420   4.829600 -48.755400  43.302200  85.174800  24.948000  -0.006895  -0.004270   7.474050   0.001489  -0.004156  30.309800   2.318020   3.958350  24.864400  -0.001583  -0.005572  17.405100   0.003528  -0.000542  28.514000   0.389124   0.716543  36.311400   0.002653  -0.002218  24.183500   0.004474  -0.001516  28.685900   0.391185   0.715421  38.668900   0.003637   0.005205  25.753500  -0.000863   0.002039  32.287000   0.403241   0.638458  48.434200   0.006216  -0.002865  32.257200  -0.003743  -0.008925   4.572190   2.575490  -1.839120   0.112180   1.054680  13.084000  -3.050630  -2.173450   0.406347  -0.000000   0.000000   0.000000  -1.016280   4.311680  -6.355190   1.933660   0.243654 -12.210300  -0.236196  -2.323090   0.482019  -0.000000   0.000000   0.000000
  0.143240  89.486700  -0.317812  -1.105800  -1.645490   4.773500   0.753806   3.275100  -1.128080   1.576030   6.534380  -2.304940  -0.543476   0.318125   0.005287  -0.893314   0.645059   5.185980  -5.344700   2.815050   8.350040 -77.595600   6.069290  -0.190513  -0.830645   4.909730 -19.682600   9.369690  -2.003810  -1.966330  41.320200  36.554400 -52.700400 -33.363300  -0.002600   0.000543 -11.681600  -0.001888   0.000058 -31.379800  -0.985100   1.613930 -25.685500  -0.000086  -0.001283 -17.979800  -0.001646  -0.000975 -28.516300  -3.875430   7.090480 -40.484900   0.000000  -0.003752 -26.963000  -0.001107  -0.001335 -26.963700  -4.126000   8.050170 -28.064600   0.000326  -0.002281 -18.691000   0.000946  -0.001368 -25.086900  -4.225090   8.943260 -38.125600   0.000707  -0.001182 -25.391700  -0.000680  -0.000401   8.973320   5.117440   7.845960  68.987300  -4.234270   0.195939   4.692170  -4.765680  16.621800 -15.693600   1.454080   5.036870 -49.085500  43.504300  85.538900  24.842100  -0.006890  -0.004214   7.421070   0.001486  -0.004155  30.342800   2.380920   4.060240  24.894900  -0.001612  -0.005574  17.426400   0.003528  -0.000510  28.512800   0.444830   0.819154  36.308000   0.002614  -0.002132  24.181200   0.004473  -0.001456  28.684200   0.447195   0.817867  38.690600   0.003615   0.005228  25.768000  -0.000880   0.002102  32.262500   0.505734   0.801260  48.399100   0.006212  -0.002798  32.233800  -0.003757  -0.008889   4.580430   2.589750  -1.835900   0.115997   1.072930  13.071100  -3.066750  -2.174820   0.377123  -0.000000   0.000000  -0.000000  -1.008200   4.312920  -6.355500   1.943700   0.275089 -12.238600  -0.236861  -2.338430   0.482012   0.000000   0.000000   0.000000
  0.120478  89.486800  -0.323980  -1.098330  -1.674390   4.803420   0.760091   3.295190  -1.129960   1.588850   6.574370  -2.309660  -0.547004   0.333579   0.005275  -0.899591   0.676556   5.162860  -5.381550   2.799760   8.312850 -77.625400   6.064390  -0.170415  -0.846460   4.865200 -19.765200   9.386470  -2.005270  -1.993000  41.207900  36.339000 -52.586000 -33.336100  -0.002655   0.000687 -11.668000  -0.001904   0.000101 -31.453400  -0.932477   1.524520 -25.744500  -0.000113  -0.001312 -18.021100  -0.001654  -0.000996 -28.519700  -3.871360   7.082180 -40.574900   0.000146  -0.003749 -27.022900  -0.001137  -0.001375 -26.978100  -4.076310   7.950010 -28.092100   0.000305  -0.002347 -18.709300   0.000942  -0.001415 -25.127000  -4.186560   8.848030 -38.175900   0.000698  -0.001211 -25.425200  -0.000685  -0.000415   9.018310   5.043640   7.911350  69.004200  -4.247240   0.038489   4.799890  -4.918360  16.761300 -15.977300   1.653390   5.306970 -49.187300  43.658600  85.872600  24.850200  -0.006891  -0.004137   7.425110   0.001486  -0.004168  30.415700   2.416350   4.105330  24.956400  -0.001652  -0.005580  17.469500   0.003527  -0.000458  28.509700   0.488200   0.898992  36.291400   0.002558  -0.002002  24.170200   0.004473  -0.001368  28.682900   0.490842   0.897548  38.732200   0.003579   0.005265  25.795700  -0.000903   0.002196  32.258900   0.554195   0.877907  48.394800   0.006203  -0.002702  32.230900  -0.003771  -0.008838   4.588240   2.605730  -1.828520   0.117726   1.084510  13.054200  -3.079370  -2.173140   0.353777  -0.000000   0.000000   0.000000  -1.004370   4.345140  -6.355650   1.952190   0.266042 -12.264000  -0.239059  -2.345190   0.486141   0.000000   0.000000   0.000000
  0.099559  89.487000  -0.328064  -1.089790  -1.709010   4.828110   0.770732   3.320330  -1.130530   1.611110   6.624430  -2.311560  -0.555187   0.345497   0.005255  -0.912223   0.700494   5.134340  -5.439890   2.790440   8.231020 -77.660000   6.030080  -0.137552  -0.906200   4.755320 -19.926700   9.411290  -2.015650  -2.032690  41.039200  36.036100 -52.390500 -33.292200  -0.002721   0.000775 -11.646100  -0.001923   0.000147 -31.559100  -0.859507   1.400160 -25.829600  -0.000144  -0.001346 -18.080700  -0.001665  -0.001019 -28.525900  -3.864540   7.068480 -40.723300   0.000242  -0.003745 -27.121700  -0.001181  -0.001422 -26.998800  -4.004310   7.804340 -28.142700   0.000281  -0.002423 -18.743000   0.000938  -0.001468 -25.186700  -4.129490   8.706720 -38.251400   0.000689  -0.001243 -25.475500  -0.000691  -0.000430   9.046170   4.972300   7.946140  69.024400  -4.277620  -0.127644   4.903130  -5.008860  17.071000 -16.297600   1.910850   5.617230 -49.203100  43.741100  86.067300  24.858300  -0.006895  -0.004060   7.429140   0.001486  -0.004192  30.504300   2.432110   4.121030  25.029600  -0.001695  -0.005588  17.520800   0.003523  -0.000394  28.504500   0.527767   0.971932  36.253100   0.002488  -0.001844  24.144600   0.004471  -0.001261  28.682000   0.530717   0.970310  38.792100   0.003535   0.005309  25.835500  -0.000932   0.002310  32.255500   0.590379   0.935248  48.390500   0.006192  -0.002601  32.228000  -0.003790  -0.008780   4.596060   2.630080  -1.820090   0.119470   1.095050  13.043200  -3.091960  -2.171470   0.330230   0.000000   0.000000   0.000000  -0.997832   4.402140  -6.355310   1.961150   0.252639 -12.287600  -0.240418  -2.350610   0.495308  -0.000000   0.000000  -0.000000
  0.081907  89.489300  -0.329050  -1.080870  -1.752180   4.842620   0.783701   3.351350  -1.123110   1.637430   6.686320  -2.297740  -0.565893   0.349791   0.005241  -0.929245   0.708774   5.092090  -5.508700   2.821280   8.073660 -77.692600   5.953910  -0.108219  -1.019920   4.564080 -20.203800   9.465720  -2.046030  -2.058090  40.953700  35.867200 -52.229300 -33.252800  -0.002793   0.000722 -11.626400  -0.001945   0.000194 -31.604300  -0.830778   1.349720 -25.868300  -0.000175  -0.001378 -18.107800  -0.001678  -0.001043 -28.532300  -3.857570   7.055180 -40.866800   0.000191  -0.003740 -27.217300  -0.001203  -0.001458 -27.018300  -3.964920   7.722390 -28.207400   0.000257  -0.002500 -18.786100   0.000935  -0.001521 -25.225600  -4.094020   8.617580 -38.302100   0.000680  -0.001276 -25.509300  -0.000699  -0.000445   9.052710   4.925210   7.913850  69.038700  -4.334040  -0.271440   4.957310  -4.984860  17.547600 -16.563300   2.040670   5.908950 -49.001500  43.583900  85.894100  24.812400  -0.006904  -0.004000   7.406210   0.001475  -0.004218  30.593400   2.418340   4.083930  25.101700  -0.001735  -0.005595  17.571300   0.003516  -0.000326  28.497600   0.549505   1.012250  36.183300   0.002408  -0.001670  24.098100   0.004466  -0.001144  28.684700   0.552734   1.010460  38.868100   0.003485   0.005354  25.886100  -0.000966   0.002434  32.241200   0.622745   0.986785  48.369100   0.006180  -0.002509  32.213800  -0.003817  -0.008719   4.603980   2.666570  -1.813370   0.122294   1.105310  13.044500  -3.105100  -2.171780   0.306584  -0.000000   0.000000   0.000000  -0.990430   4.455010  -6.352590   1.966810   0.244207 -12.304400  -0.237731  -2.355780   0.504994   0.000000   0.000000   0.000000
